<?xml version="1.0" encoding="utf-8"?>
<!-- Generator: Adobe Illustrator 26.0.1, SVG Export Plug-In . SVG Version: 6.00 Build 0)  -->
<svg version="1.1" id="图层_1" xmlns="http://www.w3.org/2000/svg" xmlns:xlink="http://www.w3.org/1999/xlink" x="0px" y="0px"
	 viewBox="0 0 512 512" style="enable-background:new 0 0 512 512;" xml:space="preserve">
<g>
	<g>
		<path d="M395.98,394.12c-21.16,0-42.32-0.02-63.47,0.01c-39.47,0.05-69-17.11-88.73-51.22c-27.51-47.58-55.1-95.11-82.43-142.8
			c-7.91-13.8-19.19-20.38-35.12-20.19c-27.49,0.32-54.99,0.23-82.49,0.01c-12.12-0.09-21.51-5.66-27.2-16.47
			c-5.39-10.26-4.85-20.63,1.34-30.41c5.64-8.9,13.96-13.94,24.53-14.01c30.83-0.19,61.71-1.15,92.47,0.29
			c35.02,1.64,61.36,19.27,78.95,49.56c25.18,43.35,50.15,86.82,75.22,130.23c3.16,5.48,6.28,10.99,9.56,16.4
			c6.93,11.47,17.1,17.46,30.56,17.5c22.3,0.06,44.59,0.02,68.17,0.02c-3.58-3.68-6.42-6.55-9.21-9.48
			c-8.67-9.12-11.62-19.77-7.51-31.75c4.03-11.75,12.65-18.57,24.91-20.37c9.27-1.36,17.76,1.21,24.39,7.74
			c21.38,21.03,42.71,42.14,63.63,63.62c11.69,12,11.53,29.97-0.19,41.95c-20.74,21.2-41.74,42.16-62.93,62.91
			c-11.92,11.67-30.68,11.24-42.43-0.26c-11.74-11.49-12.25-30.02-0.97-42.43c3.08-3.39,6.69-6.29,10.05-9.41
			C396.72,395.08,396.35,394.6,395.98,394.12z"/>
		<path d="M396.01,180.08c-23.32,0-46.64-0.38-69.95,0.15c-12.4,0.28-21.35,7.28-27.84,17.75c-7.66,12.36-20.7,17.78-33.82,14.48
			c-19.3-4.86-29.36-26.56-19.5-43.87c17.47-30.67,44.28-47.54,79.49-49.38c22.1-1.16,44.31-0.27,66.47-0.3c1.78,0,3.56,0,6.61,0
			c-4.12-4.28-7.52-7.58-10.65-11.11c-8.39-9.47-10.15-22.35-4.74-33.55c5.34-11.05,16.86-17.89,29.25-17.18
			c7.6,0.44,14.25,3.34,19.65,8.72c20.78,20.69,41.64,41.3,62.18,62.23c11.93,12.15,12.18,30.13,0.31,42.33
			c-20.8,21.37-41.91,42.45-63.27,63.26c-11.99,11.68-30.79,10.99-42.38-0.7c-11.8-11.91-11.95-30.49-0.27-42.8
			c2.94-3.1,6.13-5.96,9.2-8.93C396.5,180.81,396.26,180.44,396.01,180.08z"/>
		<path d="M88.84,394.12c-14.66,0-29.32,0.05-43.97-0.01c-18.36-0.08-31.93-13.19-31.85-30.65c0.08-17.14,13.71-30.32,31.72-30.39
			c27.48-0.1,54.97-0.16,82.45,0.02c14.42,0.1,25.22-5.67,32.88-17.95c9.73-15.6,28.25-20.15,42.87-10.86
			c14.69,9.32,18.64,27.84,8.76,43.39c-18.78,29.58-45.8,45.23-80.89,46.33c-13.98,0.44-27.98,0.07-41.97,0.07
			C88.84,394.09,88.84,394.11,88.84,394.12z"/>
	</g>
</g>
</svg>
