<?xml version="1.0" encoding="utf-8"?>
<!-- Generator: Adobe Illustrator 26.0.1, SVG Export Plug-In . SVG Version: 6.00 Build 0)  -->
<svg version="1.1" id="图层_1" xmlns="http://www.w3.org/2000/svg" xmlns:xlink="http://www.w3.org/1999/xlink" x="0px" y="0px"
	 viewBox="0 0 512 512" style="enable-background:new 0 0 512 512;" xml:space="preserve">
<style type="text/css">
	.st0{fill:#212121;}
</style>
<circle class="st0" cx="60.2" cy="85.5" r="38"/>
<circle class="st0" cx="60.2" cy="259.3" r="38"/>
<circle class="st0" cx="60.2" cy="433.1" r="38"/>
<path class="st0" d="M174.2,58.3h293.3c15,0,27.2,12.2,27.2,27.2l0,0c0,15-12.2,27.2-27.2,27.2H174.2c-15,0-27.2-12.2-27.2-27.2l0,0
	C147.1,70.5,159.2,58.3,174.2,58.3z"/>
<path class="st0" d="M174.2,232.2h293.3c15,0,27.2,12.2,27.2,27.2l0,0c0,15-12.2,27.2-27.2,27.2H174.2c-15,0-27.2-12.2-27.2-27.2
	l0,0C147.1,244.3,159.2,232.2,174.2,232.2z"/>
<path class="st0" d="M174.2,406h293.3c15,0,27.2,12.2,27.2,27.2l0,0c0,15-12.2,27.2-27.2,27.2H174.2c-15,0-27.2-12.2-27.2-27.2l0,0
	C147.1,418.1,159.2,406,174.2,406z"/>
</svg>
