<?xml version="1.0" encoding="utf-8"?>
<!-- Generator: Adobe Illustrator 26.0.1, SVG Export Plug-In . SVG Version: 6.00 Build 0)  -->
<svg version="1.1" id="图层_1" xmlns="http://www.w3.org/2000/svg" xmlns:xlink="http://www.w3.org/1999/xlink" x="0px" y="0px"
	 viewBox="0 0 512 512" style="enable-background:new 0 0 512 512;" xml:space="preserve">
<style type="text/css">
	.st0{fill:#212121;}
</style>
<path class="st0" d="M113.8,113.8h227.6l-56.9-56.9l42.7-42.7l128,128l-128,128l-42.7-42.7l56.9-56.9H113.8
	c-31.3,0-56.9,25.6-56.9,56.9v56.9H0v-56.9C0,165,51.2,113.8,113.8,113.8z"/>
<path class="st0" d="M398.2,398.2H170.7l56.9,56.9l-42.7,42.7l-128-128l128-128l42.7,42.7l-56.9,56.9h227.6
	c31.3,0,56.9-25.6,56.9-56.9v-56.9H512v56.9C512,347,460.8,398.2,398.2,398.2z"/>
</svg>
