<?xml version="1.0" encoding="utf-8"?>
<!-- Generator: Adobe Illustrator 26.0.1, SVG Export Plug-In . SVG Version: 6.00 Build 0)  -->
<svg version="1.1" id="图层_1" xmlns="http://www.w3.org/2000/svg" xmlns:xlink="http://www.w3.org/1999/xlink" x="0px" y="0px"
	 viewBox="0 0 512 512" style="enable-background:new 0 0 512 512;" xml:space="preserve">
<g>
	<g>
		<path d="M452.14,248.05c-1.14,7.52-1.97,15.11-3.46,22.56c-12.24,60.86-45.72,106.06-100.1,135.74
			c-10.6,5.78-21.79,10.17-33.32,13.74c-1.24,0.38-2.64,0.41-3.9,1.87c11.9,3.09,23.59,6.09,35.26,9.17
			c16.11,4.25,24.44,18.12,19.7,32.71c-4.1,12.63-16.99,19.65-30.7,16.15c-30.14-7.68-60.24-15.51-90.29-23.55
			c-14.54-3.89-21.95-16.63-18.24-31.36c7.52-29.78,15.24-59.51,23.12-89.2c3.66-13.78,15.42-21.15,29.11-18.87
			c11.75,1.95,21.09,13.67,20.09,25.83c-0.66,8.08-3.69,15.72-5.51,23.59c-0.56,2.42-1.23,4.82-1.98,7.78
			c6.17-0.87,11.66-2.72,16.99-4.88c51.62-20.88,82.29-58.82,91.64-113.82c1.93-11.34,1.95-22.84,0.74-34.34
			c-0.54-5.1-1.15-10.27,0.34-15.36c3.48-11.85,14.05-19.05,26.47-18.02c11.51,0.96,20.72,10.04,22.31,22.04
			c0.6,4.49,1.16,8.98,1.73,13.46C452.14,231.55,452.14,239.8,452.14,248.05z"/>
		<path d="M369.25,101.72c-3.36-12.01-6.68-24.02-10.08-36.02c-2.6-9.2-1.13-17.57,5.33-24.68c12.51-13.79,35.18-9.77,41.44,7.77
			c4.49,12.57,7.55,25.65,11.19,38.51c5.05,17.82,10.12,35.63,15.05,53.48c4.26,15.45-2.95,28.37-18.31,32.84
			c-13.25,3.85-26.55,7.5-39.82,11.25c-15.82,4.47-31.61,9.01-47.45,13.41c-10.59,2.95-19.92,0.68-27.05-7.89
			c-6.74-8.11-7.64-17.34-3.24-26.87c3.36-7.28,9.43-11.44,17.01-13.57c8.16-2.29,16.31-4.62,25.02-7.09
			c-8.73-9.31-17.92-17.09-28.39-23.09C256.2,89,203.44,90.87,151.81,125.07c-5.12,3.39-9.84,7.37-16.24,8.47
			c-10.61,1.82-21.46-3.44-26.49-13.24c-4.9-9.54-3.27-21.71,4.66-28.86c12.55-11.32,27.13-19.59,42.48-26.45
			c28.98-12.95,59.42-18.61,91.01-16.4c45.2,3.16,84.75,20.16,118.3,50.84c0.96,0.88,1.96,1.74,2.93,2.6
			C368.73,101.92,368.99,101.82,369.25,101.72z"/>
		<path d="M114.28,222.87c-10.72,41.73-5.26,81.07,18.2,117.48c15.3,23.74,36.27,41.1,62.03,52.58c7.72,3.44,13.82,8.35,16.34,16.77
			c2.82,9.43,0.79,17.86-6,24.85c-6.82,7.01-15.37,9.51-24.64,6.39c-15.86-5.34-30.14-13.9-43.4-24
			c-38.99-29.68-63.83-68.51-73.89-116.6c-5.22-24.94-5.17-49.98-0.33-75.01c0.22-1.12,0.74-2.21,0.04-3.9
			c-6.08,6.01-12.03,11.84-17.92,17.73c-4.15,4.14-8.84,7.23-14.71,8.35c-9.88,1.89-20.5-2.8-25.78-11.48
			c-5.39-8.86-4.82-20.15,1.48-28.18c1.27-1.62,2.64-3.16,4.1-4.61c19.96-19.78,39.93-39.56,59.93-59.3
			c9.74-9.61,21.52-11.52,32.05-5.19c1.87,1.12,3.64,2.53,5.18,4.08c20.39,20.6,40.89,41.1,61.03,61.95
			c12.74,13.19,9.27,33.21-6.71,40.64c-9.06,4.21-17.82,3.16-25.7-2.95c-6.17-4.79-11.13-10.9-16.67-16.38
			c-1.23-1.22-2.19-2.71-3.27-4.07C115.2,222.3,114.74,222.59,114.28,222.87z"/>
	</g>
</g>
</svg>
